<svg viewBox="0 0 14 14" xmlns="http://www.w3.org/2000/svg">
<path d="M10.9374 4.66675H3.06241C2.97589 4.66677 2.89132 4.69244 2.81939 4.74051C2.74746 4.78858 2.6914 4.85691 2.6583 4.93684C2.62519 5.01677 2.61653 5.10472 2.6334 5.18957C2.65027 5.27443 2.69193 5.35238 2.75309 5.41356L6.69059 9.35106C6.7312 9.3917 6.77942 9.42394 6.83249 9.44593C6.88557 9.46793 6.94245 9.47925 6.9999 9.47925C7.05735 9.47925 7.11424 9.46793 7.16731 9.44593C7.22039 9.42394 7.26861 9.3917 7.30922 9.35106L11.2467 5.41356C11.3079 5.35238 11.3495 5.27443 11.3664 5.18957C11.3833 5.10472 11.3746 5.01677 11.3415 4.93684C11.3084 4.85691 11.2523 4.78858 11.1804 4.74051C11.1085 4.69244 11.0239 4.66677 10.9374 4.66675Z" />
</svg>
