<svg viewBox="0 0 60 60" fill="none" xmlns="http://www.w3.org/2000/svg">
<path d="M41.3367 21.4277L28.9969 38.5371C28.8244 38.7779 28.597 38.974 28.3336 39.1093C28.0702 39.2446 27.7784 39.3152 27.4822 39.3152C27.1861 39.3152 26.8942 39.2446 26.6308 39.1093C26.3674 38.974 26.1401 38.7779 25.9676 38.5371L18.6609 28.4121C18.4382 28.1015 18.6609 27.668 19.0418 27.668H21.7898C22.3875 27.668 22.9559 27.9551 23.3074 28.4473L27.4793 34.2363L36.6902 21.4629C37.0418 20.9765 37.6043 20.6836 38.2078 20.6836H40.9559C41.3367 20.6836 41.5594 21.1172 41.3367 21.4277Z" fill="#E92079"/>
<path d="M29.7571 55.1127C43.7602 55.1127 55.1119 43.7609 55.1119 29.7579C55.1119 15.7548 43.7602 4.40308 29.7571 4.40308C15.7541 4.40308 4.40234 15.7548 4.40234 29.7579C4.40234 43.7609 15.7541 55.1127 29.7571 55.1127Z" stroke="#E92079" stroke-width="4"/>
</svg>
