<svg  viewBox="0 0 12 12"  xmlns="http://www.w3.org/2000/svg">
<path d="M1.13754 11.9935C0.843337 12.0108 0.553996 11.9119 0.330533 11.7175C-0.110178 11.269 -0.110178 10.5447 0.330533 10.0962L9.98066 0.333722C10.439 -0.10019 11.1583 -0.0760693 11.5872 0.387644C11.9751 0.806978 11.9977 1.4515 11.6402 1.89757L1.93317 11.7175C1.71259 11.9091 1.42789 12.0078 1.13754 11.9935Z"/>
<path d="M10.7758 11.9938C10.4776 11.9925 10.1918 11.8728 9.98012 11.6603L0.329953 1.89783C-0.0783427 1.41549 -0.0228327 0.689586 0.453962 0.276501C0.879514 -0.092167 1.50712 -0.092167 1.93263 0.276501L11.6396 10.039C12.0979 10.473 12.1216 11.2007 11.6925 11.6643C11.6755 11.6827 11.6578 11.7006 11.6396 11.7178C11.4019 11.9269 11.0891 12.0268 10.7758 11.9938Z"/>
</svg>
